<?xml version="1.0" standalone="no"?>
<svg xmlns="http://www.w3.org/2000/svg" viewBox="0 0 120.709 29" width="120.709" height="29"><g fill="#fff" color="#fff" transform="translate(0, 0) scale(0.6041667)"><svg width="28.0" height="48.0" x="0.0" y="0.0" viewBox="0 0 28 48"><path fill="currentColor" fill-rule="nonzero" d="M13.93.61L.36 30.2l13.57 17.19L27.51 30.2 13.93.61zm0 3.92L25.6 30.02H2.26L13.93 4.53z"></path></svg></g><line x1="28.917" y1="1" x2="28.917" y2="28" stroke="#fff" stroke-linecap="round"></line><path fill="#fff" fill-rule="nonzero" d="M12.34 10.08L12.34 10.08Q12.96 10.08 13.32 10.51Q13.68 10.94 13.68 11.71L13.68 11.71Q13.68 11.90 13.66 12.11Q13.63 12.31 13.58 12.46L13.58 12.46Q13.08 12.34 12.48 12.31L12.48 12.31Q12.34 13.37 11.71 14.53Q11.09 15.70 10.20 16.72Q9.31 17.74 8.26 18.50Q7.20 19.27 6.17 19.54L6.17 19.54Q2.95 19.46 1.48 17.87Q0 16.27 0 12.89L0 12.89Q0 10.42 0.91 8.10Q1.82 5.78 3.34 3.98Q4.85 2.18 6.80 1.09Q8.76 0 10.87 0L10.87 0Q12.53 0 13.45 0.70Q14.38 1.39 14.38 2.66L14.38 2.66Q14.38 3.50 13.98 4.22Q13.58 4.94 12.67 5.78L12.67 5.78Q12.12 5.62 11.71 5.20Q11.30 4.78 11.21 4.22L11.21 4.22Q12.02 3.62 12.36 3.12Q12.70 2.62 12.70 1.92L12.70 1.92Q12.70 0.82 11.38 0.82L11.38 0.82Q10.30 0.82 9.06 1.62Q7.82 2.42 6.58 3.94L6.58 3.94Q4.80 6.07 3.98 8.34Q3.17 10.61 3.17 13.44L3.17 13.44Q3.17 14.50 3.38 15.36Q3.60 16.22 3.96 16.87Q4.32 17.52 4.81 17.90Q5.30 18.29 5.88 18.34L5.88 18.34Q6.65 18.17 7.42 17.56Q8.18 16.94 8.82 16.12Q9.46 15.29 9.90 14.34Q10.34 13.39 10.44 12.53L10.44 12.53Q9.77 12.67 9.16 12.80Q8.54 12.94 7.99 12.94L7.99 12.94Q7.27 12.94 6.73 12.58Q6.19 12.22 6 11.59L6 11.59Q6.43 11.35 7.26 11.09Q8.09 10.82 9.02 10.60Q9.96 10.37 10.86 10.22Q11.76 10.08 12.34 10.08ZM21.07 17.18L21.07 17.18Q20.62 16.80 20.46 16.22Q20.30 15.65 20.30 15.24L20.30 15.24Q20.30 14.74 20.42 14.38L20.42 14.38Q20.33 14.38 19.99 14.76Q19.66 15.14 19.26 15.67Q18.86 16.20 18.48 16.70Q18.10 17.21 17.90 17.45L17.90 17.45Q17.59 17.78 17.32 17.98Q17.04 18.17 16.87 18.19L16.87 18.19Q16.49 18.17 16.07 18.04Q15.65 17.90 15.28 17.66Q14.90 17.42 14.63 17.09Q14.35 16.75 14.26 16.32L14.26 16.32Q14.26 15.65 14.29 15.22Q14.33 14.78 14.45 14.28L14.45 14.28Q14.66 13.37 15.08 12.22Q15.50 11.06 16.06 9.95Q16.61 8.83 17.29 7.86Q17.98 6.89 18.74 6.34L18.74 6.34Q18.96 6.34 19.25 6.37Q19.54 6.41 19.84 6.50Q20.14 6.60 20.41 6.73Q20.69 6.86 20.88 7.08L20.88 7.08Q20.66 7.32 19.79 8.69Q18.91 10.06 17.83 12.62L17.83 12.62Q17.71 12.89 17.54 13.39Q17.38 13.90 17.21 14.45Q17.04 15 16.93 15.53Q16.82 16.06 16.82 16.37L16.82 16.37Q16.82 16.56 16.88 16.66Q16.94 16.75 16.99 16.80L16.99 16.80Q17.35 16.66 17.90 16.01Q18.46 15.36 19.44 14.02L19.44 14.02Q19.68 13.68 20.00 13.25Q20.33 12.82 20.66 12.32Q21 11.83 21.30 11.30Q21.60 10.78 21.79 10.25L21.79 10.25Q21.89 9.96 22.04 9.56Q22.20 9.17 22.43 8.74Q22.66 8.30 22.96 7.86Q23.26 7.42 23.66 7.03L23.66 7.03Q23.98 7.03 24.34 7.10Q24.70 7.18 25.02 7.28Q25.34 7.39 25.58 7.52Q25.82 7.66 25.94 7.80L25.94 7.80Q25.51 8.86 24.98 9.89Q24.46 10.92 24 11.92Q23.54 12.91 23.23 13.90Q22.92 14.88 22.92 15.82L22.92 15.82Q22.92 16.32 23.00 16.69Q23.09 17.06 23.18 17.32Q23.28 17.57 23.36 17.74Q23.45 17.90 23.45 18.02L23.45 18.02Q23.45 18.05 23.40 18.10L23.40 18.10Q23.38 18.12 23.35 18.12L23.35 18.12Q23.18 18.12 22.92 18.05Q22.66 17.98 22.33 17.84Q22.01 17.71 21.68 17.54Q21.36 17.38 21.07 17.18ZM34.68 8.16L34.68 8.16Q34.66 8.62 34.52 9.11Q34.39 9.60 34.20 10.00Q34.01 10.39 33.79 10.66Q33.58 10.92 33.38 10.92L33.38 10.92Q33.12 10.90 33.07 10.56L33.07 10.56Q33.07 10.49 33.13 10.33Q33.19 10.18 33.26 9.98Q33.34 9.79 33.40 9.60Q33.46 9.41 33.46 9.26L33.46 9.26Q33.46 8.93 33.30 8.70Q33.14 8.47 32.88 8.47L32.88 8.47Q31.92 8.47 31.42 9.67Q30.91 10.87 30.91 13.20L30.91 13.20Q30.91 13.44 30.94 13.49L30.94 13.49Q31.44 13.46 31.84 13.45Q32.23 13.44 32.62 13.44L32.62 13.44Q32.64 13.49 32.64 13.63L32.64 13.63Q32.64 13.85 32.54 13.94L32.54 13.94Q31.99 14.06 31.67 14.15Q31.34 14.23 31.18 14.30Q31.01 14.38 30.97 14.46Q30.94 14.54 30.94 14.69L30.94 14.69Q30.94 14.88 30.95 15.07Q30.96 15.26 30.96 15.55L30.96 15.55Q30.96 17.57 29.87 18.79Q28.78 20.02 26.83 20.21L26.83 20.21Q26.50 20.18 26.14 20.02Q25.78 19.85 25.45 19.58Q25.13 19.32 24.89 19.00Q24.65 18.67 24.55 18.34L24.55 18.34Q24.55 17.42 24.94 16.60Q25.32 15.77 25.98 15.13Q26.64 14.50 27.54 14.10Q28.44 13.70 29.50 13.63L29.50 13.63Q29.50 13.03 29.38 12.46Q29.26 11.88 29.12 11.34Q28.99 10.80 28.87 10.28Q28.75 9.77 28.75 9.26L28.75 9.26Q28.75 8.62 29.02 7.98Q29.28 7.34 29.71 6.80Q30.14 6.26 30.72 5.88Q31.30 5.50 31.92 5.35L31.92 5.35Q32.18 5.42 32.63 5.77Q33.07 6.12 33.50 6.55Q33.94 6.98 34.27 7.43Q34.61 7.87 34.68 8.16ZM26.76 19.10L26.76 19.10Q27.34 18.86 27.85 18.41Q28.37 17.95 28.75 17.38Q29.14 16.80 29.36 16.15Q29.59 15.50 29.59 14.88L29.59 14.88Q29.11 14.95 28.54 15.32Q27.96 15.70 27.46 16.21Q26.95 16.73 26.62 17.28Q26.28 17.83 26.28 18.24L26.28 18.24Q26.28 18.77 26.76 19.10ZM42.98 8.16L42.98 8.16Q42.96 8.62 42.83 9.11Q42.70 9.60 42.50 10.00Q42.31 10.39 42.10 10.66Q41.88 10.92 41.69 10.92L41.69 10.92Q41.42 10.90 41.38 10.56L41.38 10.56Q41.38 10.49 41.44 10.33Q41.50 10.18 41.57 9.98Q41.64 9.79 41.70 9.60Q41.76 9.41 41.76 9.26L41.76 9.26Q41.76 8.93 41.60 8.70Q41.45 8.47 41.18 8.47L41.18 8.47Q40.22 8.47 39.72 9.67Q39.22 10.87 39.22 13.20L39.22 13.20Q39.22 13.44 39.24 13.49L39.24 13.49Q39.74 13.46 40.14 13.45Q40.54 13.44 40.92 13.44L40.92 13.44Q40.94 13.49 40.94 13.63L40.94 13.63Q40.94 13.85 40.85 13.94L40.85 13.94Q40.30 14.06 39.97 14.15Q39.65 14.23 39.48 14.30Q39.31 14.38 39.28 14.46Q39.24 14.54 39.24 14.69L39.24 14.69Q39.24 14.88 39.25 15.07Q39.26 15.26 39.26 15.55L39.26 15.55Q39.26 17.57 38.17 18.79Q37.08 20.02 35.14 20.21L35.14 20.21Q34.80 20.18 34.44 20.02Q34.08 19.85 33.76 19.58Q33.43 19.32 33.19 19.00Q32.95 18.67 32.86 18.34L32.86 18.34Q32.86 17.42 33.24 16.60Q33.62 15.77 34.28 15.13Q34.94 14.50 35.84 14.10Q36.74 13.70 37.80 13.63L37.80 13.63Q37.80 13.03 37.68 12.46Q37.56 11.88 37.43 11.34Q37.30 10.80 37.18 10.28Q37.06 9.77 37.06 9.26L37.06 9.26Q37.06 8.62 37.32 7.98Q37.58 7.34 38.02 6.80Q38.45 6.26 39.02 5.88Q39.60 5.50 40.22 5.35L40.22 5.35Q40.49 5.42 40.93 5.77Q41.38 6.12 41.81 6.55Q42.24 6.98 42.58 7.43Q42.91 7.87 42.98 8.16ZM35.06 19.10L35.06 19.10Q35.64 18.86 36.16 18.41Q36.67 17.95 37.06 17.38Q37.44 16.80 37.67 16.15Q37.90 15.50 37.90 14.88L37.90 14.88Q37.42 14.95 36.84 15.32Q36.26 15.70 35.76 16.21Q35.26 16.73 34.92 17.28Q34.58 17.83 34.58 18.24L34.58 18.24Q34.58 18.77 35.06 19.10ZM44.18 16.46L44.18 16.46Q44.54 15.67 45.05 14.42Q45.55 13.18 46.10 11.72Q46.66 10.27 47.23 8.75Q47.81 7.22 48.31 5.86Q48.82 4.49 49.19 3.41Q49.56 2.33 49.73 1.75L49.73 1.75Q48.22 2.38 47.14 3.65Q46.06 4.92 45.50 6.84L45.50 6.84Q44.95 6.65 44.50 6.16Q44.04 5.66 43.90 4.92L43.90 4.92Q44.14 3.82 44.80 2.90Q45.46 1.99 46.46 1.34Q47.47 0.70 48.79 0.35Q50.11 0 51.62 0L51.62 0Q53.54 0 55.15 0.56Q56.76 1.13 57.91 2.14Q59.06 3.14 59.71 4.56Q60.36 5.98 60.36 7.70L60.36 7.70Q60.36 10.06 59.50 12.19Q58.63 14.33 57.16 15.96Q55.68 17.59 53.74 18.56Q51.79 19.54 49.66 19.54L49.66 19.54Q47.69 19.54 46.28 18.76Q44.88 17.98 44.18 16.46ZM52.66 1.20L52.66 1.20Q51.46 1.20 50.38 1.54L50.38 1.54Q51.43 1.92 52.13 2.34Q52.82 2.76 53.09 3L53.09 3Q52.90 3.26 52.52 3.94Q52.15 4.61 51.66 5.57Q51.17 6.53 50.62 7.67Q50.06 8.81 49.54 10.01L49.54 10.01Q48.17 13.06 47.56 14.81Q46.94 16.56 46.94 17.23L46.94 17.23Q47.28 17.35 47.76 17.40Q48.24 17.45 48.79 17.45L48.79 17.45Q50.74 17.45 52.48 16.55Q54.22 15.65 55.52 14.14Q56.83 12.62 57.59 10.62Q58.34 8.62 58.34 6.41L58.34 6.41Q58.34 3.94 56.81 2.57Q55.27 1.20 52.66 1.20ZM69.74 7.78L69.74 7.78Q69.65 9.26 69.22 10.33Q68.78 11.40 67.98 12.20Q67.18 13.01 66.02 13.66Q64.87 14.30 63.34 14.90L63.34 14.90Q63.34 15.05 63.32 15.20Q63.31 15.36 63.31 15.53L63.31 15.53Q63.31 15.84 63.36 16.18Q63.41 16.51 63.53 16.80Q63.65 17.09 63.86 17.27Q64.08 17.45 64.42 17.45L64.42 17.45Q65.06 17.45 65.69 17.16Q66.31 16.87 66.88 16.45Q67.44 16.03 67.93 15.54Q68.42 15.05 68.81 14.64L68.81 14.64Q69.05 14.86 69.22 15.05L69.22 15.05Q68.14 16.49 66.85 17.44Q65.57 18.38 64.42 18.65L64.42 18.65Q62.76 18.46 61.84 17.44Q60.91 16.42 60.91 14.98L60.91 14.98Q60.91 13.99 61.19 12.97Q61.46 11.95 61.96 11.00Q62.45 10.06 63.11 9.22Q63.77 8.38 64.52 7.75Q65.28 7.13 66.08 6.77Q66.89 6.41 67.68 6.41L67.68 6.41Q68.78 6.55 69.74 7.78ZM68.09 8.57L68.09 8.57Q67.44 8.66 66.74 9.10Q66.05 9.53 65.44 10.25Q64.82 10.97 64.32 11.93Q63.82 12.89 63.53 13.99L63.53 13.99Q65.45 13.03 66.72 11.63Q67.99 10.22 68.09 8.57ZM72.00 9.22L72.00 9.22Q72.00 8.78 72.06 8.40Q72.12 8.02 72.31 7.74Q72.50 7.46 72.84 7.31Q73.18 7.15 73.73 7.15L73.73 7.15Q74.06 7.15 74.48 7.22Q74.90 7.30 75.10 7.49L75.10 7.49Q75.00 7.90 74.94 8.21Q74.88 8.52 74.84 8.89Q74.81 9.26 74.78 9.78Q74.76 10.30 74.74 11.11L74.74 11.11Q74.69 12.74 74.58 14.03Q74.47 15.31 74.09 16.58L74.09 16.58Q74.09 16.68 74.16 16.68L74.16 16.68Q74.52 16.42 74.98 15.91Q75.43 15.41 75.94 14.77Q76.44 14.14 76.94 13.42Q77.45 12.70 77.88 12L77.88 12Q78.46 10.99 79.15 9.48Q79.85 7.97 80.30 6.24L80.30 6.24Q80.45 6.24 80.68 6.30Q80.90 6.36 81.13 6.44Q81.36 6.53 81.54 6.62Q81.72 6.72 81.79 6.79L81.79 6.79Q81.74 7.82 81.30 8.90Q80.86 9.98 80.23 10.99Q79.61 12 78.91 12.89Q78.22 13.78 77.64 14.42L77.64 14.42Q76.49 15.77 75.32 16.82Q74.16 17.88 72.55 18.86L72.55 18.86Q71.93 18.62 71.57 18.23Q71.21 17.83 71.21 17.40L71.21 17.40Q71.21 17.11 71.34 16.74Q71.47 16.37 71.64 15.78Q71.81 15.19 71.94 14.30Q72.07 13.42 72.07 12.05L72.07 12.05Q72.07 11.26 72.04 10.45Q72.00 9.65 72.00 9.22Z" transform="translate(38.917, 4.397)"></path></svg>